<?xml version="1.0" encoding="UTF-8"?><svg xmlns="http://www.w3.org/2000/svg" viewBox="0 0 750 500"><defs><style>.cls-1{fill:#ebebeb;}.cls-2{fill:#eb996e;}.cls-3{fill:#f5f5f5;}.cls-4,.cls-5{fill:#fff;}.cls-6{fill:#fafafa;}.cls-7{fill:#ffbe9d;}.cls-8{fill:#ff725e;}.cls-9{fill:#e0e0e0;}.cls-10{fill:#455a64;}.cls-11{fill:#263238;}.cls-12{letter-spacing:0em;}.cls-5{font-family:MyriadPro-Bold, 'Myriad Pro';font-size:64px;}.cls-13{letter-spacing:0em;}.cls-14{letter-spacing:0em;}.cls-15{opacity:.3;}.cls-16{letter-spacing:0em;}</style></defs><g id="Background_Complete"><g><rect class="cls-1" x="626.39" y="274.33" width="55.65" height="82.56" transform="translate(109.74 796.39) rotate(-67.2)"/><path class="cls-9" d="M703.03,306.68s-.34,.16-1,.39c-.73,.24-1.69,.56-2.9,.97-2.61,.83-6.25,2-10.71,3.42-9.14,2.84-21.66,6.74-35.52,11.05l-.29,.09-.15-.27c-.11-.21-.23-.43-.36-.65-6.99-12.92-13.32-24.61-17.95-33.15-2.24-4.21-4.06-7.63-5.36-10.09-.59-1.15-1.07-2.07-1.42-2.76-.32-.64-.47-.97-.45-.99,.02-.01,.22,.3,.58,.91,.39,.68,.9,1.57,1.55,2.69,1.36,2.43,3.25,5.82,5.57,9.97,4.68,8.52,11.07,20.17,18.14,33.05,.12,.22,.24,.45,.36,.65l-.44-.18c13.89-4.23,26.42-8.05,35.58-10.84,4.5-1.33,8.16-2.42,10.78-3.2,1.22-.35,2.2-.62,2.94-.83,.67-.18,1.03-.27,1.04-.24Z"/><path class="cls-9" d="M605.36,325.98c-.09-.18,8.59-4.81,19.38-10.33,10.8-5.52,19.63-9.85,19.73-9.66,.09,.18-8.58,4.81-19.38,10.33-10.8,5.52-19.63,9.85-19.72,9.66Z"/><path class="cls-9" d="M670.03,315.98c.2-.05,2.92,9.3,6.08,20.9,3.16,11.6,5.55,21.04,5.35,21.1-.2,.05-2.92-9.3-6.08-20.9-3.16-11.6-5.55-21.04-5.35-21.1Z"/></g><g><rect class="cls-3" x="138.58" y="367.89" width="41.38" height="61.4" transform="translate(-269.9 390.95) rotate(-67.2)"/><path class="cls-9" d="M195.57,391.95s-.25,.12-.74,.29c-.54,.18-1.26,.42-2.16,.72-1.94,.62-4.64,1.48-7.97,2.55-6.8,2.12-16.11,5.01-26.41,8.22l-.22,.07-.11-.2c-.08-.15-.17-.32-.26-.48-5.2-9.61-9.91-18.3-13.35-24.66-1.66-3.13-3.02-5.68-3.99-7.5-.44-.85-.79-1.54-1.06-2.05-.24-.47-.35-.72-.34-.73s.17,.23,.43,.68c.29,.5,.67,1.17,1.15,2,1.01,1.8,2.42,4.32,4.14,7.42,3.48,6.34,8.23,15,13.49,24.58,.09,.17,.18,.33,.26,.49l-.33-.13c10.33-3.15,19.65-5.99,26.46-8.06,3.34-.99,6.07-1.8,8.02-2.38,.91-.26,1.64-.46,2.19-.62,.5-.14,.77-.2,.77-.18Z"/><path class="cls-9" d="M122.94,406.31c-.07-.14,6.38-3.58,14.41-7.68,8.03-4.11,14.6-7.32,14.67-7.19,.07,.14-6.38,3.58-14.42,7.68-8.03,4.11-14.6,7.32-14.67,7.19Z"/><path class="cls-9" d="M171.04,398.87c.15-.04,2.17,6.92,4.52,15.54,2.35,8.63,4.13,15.65,3.98,15.69-.15,.04-2.17-6.92-4.52-15.54-2.35-8.62-4.13-15.65-3.98-15.69Z"/></g><g><rect class="cls-3" x="56.13" y="253.26" width="72.21" height="69.87" transform="translate(-99.68 54.25) rotate(-21.62)"/><polygon class="cls-9" points="74.54 326.34 79.87 285.56 103.53 300.9 108.26 285.9 131.27 303.87 74.54 326.34"/><path class="cls-9" d="M98.96,270.48c1.06,2.67-.25,5.69-2.92,6.75s-5.69-.25-6.75-2.92c-1.06-2.67,.25-5.69,2.92-6.75s5.69,.25,6.75,2.92Z"/><g class="cls-15"><path class="cls-9" d="M131.34,304.05s-.05-.09-.12-.26c-.08-.19-.18-.44-.32-.75-.28-.69-.68-1.66-1.19-2.91-1.04-2.57-2.54-6.28-4.44-11-3.79-9.47-9.2-22.96-15.68-39.16l.38,.17c-16.42,6.52-35.89,14.26-56.7,22.52-.05,.1,.36-.84,.19-.44h0s.01,.04,.01,.04l.02,.06,.05,.12,.09,.23,.18,.46,.37,.93,.73,1.84c.49,1.23,.97,2.45,1.45,3.67,.96,2.43,1.92,4.85,2.86,7.23,1.89,4.77,3.74,9.45,5.54,14,3.59,9.1,6.99,17.7,10.12,25.62l-.39-.17c16.95-6.65,31.11-12.21,41.07-16.11,4.97-1.93,8.89-3.46,11.6-4.51,1.33-.51,2.35-.9,3.08-1.18,.33-.12,.6-.22,.8-.3,.18-.07,.28-.1,.29-.09,0,0-.07,.04-.24,.11-.19,.08-.44,.19-.76,.32-.71,.29-1.71,.7-3,1.23-2.68,1.08-6.56,2.65-11.48,4.63-9.97,3.99-24.15,9.67-41.14,16.47l-.28,.11-.11-.28c-3.14-7.91-6.56-16.5-10.18-25.6-1.81-4.55-3.66-9.22-5.55-13.99-.95-2.39-1.9-4.8-2.87-7.23-.48-1.22-.97-2.44-1.45-3.67l-.73-1.84-.37-.92-.18-.46-.09-.23-.05-.12-.02-.06v-.03s-.02-.01-.02-.01c-.17,.39,.23-.55,.2-.46,20.82-8.23,40.3-15.93,56.74-22.43l.28-.11,.11,.27c6.4,16.32,11.73,29.9,15.47,39.45,1.83,4.72,3.28,8.43,4.28,11,.48,1.24,.84,2.2,1.11,2.88,.11,.31,.2,.55,.27,.73,.06,.16,.09,.24,.08,.24Z"/></g></g><path class="cls-1" d="M497.53,420.2l-3.63-2.63c-2.06-1.49-3.52-3.68-4.09-6.16l-2.56-10.98c-1.69-7.27-8.43-12.03-15.65-11.47l-.99-4.27c-.25-1.08-1.33-1.75-2.41-1.5h0c-1.08,.25-1.75,1.33-1.5,2.41l.97,4.19c-7.02,2.52-11.2,9.95-9.47,17.4l2.46,10.56c.54,2.3,.28,4.72-.72,6.86l-2.27,4.87,14.79-3.44c.97,1.39,2.47,2.42,4.15,2.7,2.36,.4,4.9-.67,6.26-2.64,.56-.81,.89-1.75,1.02-2.73l13.63-3.17Z"/><g><g><g><polygon class="cls-3" points="506.11 120.09 570.09 161.89 543.13 206.36 477.6 161.98 506.11 120.09"/><path class="cls-8" d="M506.11,120.09l46.32-4.38c1.96-.19,3.78,1.03,4.36,2.92l13.3,43.27"/><path class="cls-9" d="M506.11,120.09l46.32-4.38c1.96-.19,3.78,1.03,4.36,2.92l13.3,43.27"/><path class="cls-9" d="M477.6,161.98c-.03-.13,8.76-2.31,19.64-4.87,10.88-2.56,19.72-4.54,19.75-4.41s-8.76,2.31-19.64,4.87c-10.87,2.56-19.71,4.54-19.74,4.41Z"/><path class="cls-9" d="M543.13,206.36c-.13,.02-1.47-8.73-3-19.54-1.53-10.81-2.66-19.59-2.53-19.61,.13-.02,1.47,8.73,3,19.54,1.53,10.81,2.66,19.59,2.53,19.6Z"/><polygon class="cls-9" points="506.11 120.09 521.16 166.21 570.09 161.89 506.11 120.09"/></g><g><polygon class="cls-6" points="507.75 124.58 520.85 104.63 577.04 140.98 563.78 162.32 521.38 165.87 507.75 124.58"/><path class="cls-9" d="M507.75,124.58s.11,.26,.28,.75c.18,.51,.43,1.24,.75,2.18,.65,1.93,1.6,4.74,2.81,8.32,2.4,7.19,5.83,17.49,10,29.98l-.22-.15c12.22-1.04,26.71-2.27,42.39-3.6l-.2,.12c2.53-4.07,5.18-8.34,7.88-12.69,1.82-2.93,3.62-5.82,5.38-8.65l.08,.35c-22.61-14.67-42.56-27.62-56.14-36.43l.23-.05c-4.14,6.24-7.43,11.2-9.7,14.62-1.13,1.69-2.01,2.99-2.61,3.9-.29,.43-.52,.76-.68,1-.16,.23-.25,.34-.25,.34,0,0,.06-.12,.2-.35,.15-.24,.37-.58,.64-1.01,.59-.91,1.43-2.23,2.53-3.93,2.24-3.45,5.5-8.46,9.59-14.76l.09-.14,.14,.09c13.6,8.77,33.59,21.66,56.24,36.28l.21,.14-.13,.22c-1.76,2.84-3.56,5.73-5.38,8.65-2.7,4.35-5.36,8.62-7.89,12.69l-.07,.11h-.13c-15.68,1.31-30.18,2.51-42.4,3.52h-.17s-.05-.15-.05-.15c-4.1-12.54-7.48-22.88-9.84-30.11-1.16-3.58-2.06-6.39-2.69-8.33-.3-.94-.53-1.67-.69-2.18-.15-.49-.21-.74-.21-.74Z"/></g></g><path class="cls-9" d="M561.58,145.14c-.08,.12-8.7-5.39-19.26-12.31-10.56-6.92-19.06-12.62-18.98-12.74,.08-.12,8.7,5.39,19.26,12.31,10.56,6.92,19.06,12.62,18.98,12.74Z"/><path class="cls-9" d="M557.85,150.76c-.08,.12-8.7-5.39-19.26-12.31-10.56-6.92-19.06-12.62-18.98-12.74s8.7,5.39,19.26,12.31c10.56,6.92,19.06,12.62,18.98,12.74Z"/><path class="cls-9" d="M553.55,157.23c-.08,.12-8.7-5.39-19.26-12.31-10.56-6.92-19.06-12.62-18.98-12.74s8.7,5.39,19.26,12.31c10.56,6.92,19.06,12.62,18.98,12.74Z"/><path class="cls-9" d="M549.26,163.71c-.08,.12-8.31-5.13-18.38-11.73-10.08-6.6-18.18-12.05-18.1-12.17,.08-.12,8.31,5.13,18.39,11.73,10.07,6.6,18.18,12.05,18.1,12.17Z"/><path class="cls-9" d="M538.35,164.66s-.35-.14-.92-.48c-.67-.41-1.47-.9-2.41-1.48-2.13-1.35-4.85-3.09-7.87-5-3.07-1.96-5.82-3.79-7.79-5.13-.99-.67-1.78-1.22-2.32-1.62-.54-.39-.83-.62-.81-.65,.02-.03,.35,.14,.92,.48,.67,.41,1.47,.9,2.41,1.48,2.13,1.35,4.85,3.09,7.87,5,3.07,1.96,5.82,3.79,7.79,5.13,.99,.67,1.78,1.23,2.32,1.62,.54,.39,.83,.62,.81,.65Z"/><path class="cls-9" d="M527.55,165.36c-.08,.12-1.96-.99-4.2-2.48-2.24-1.49-4-2.79-3.92-2.91,.08-.12,1.96,.99,4.2,2.48,2.24,1.49,4,2.79,3.92,2.91Z"/></g><g><g><path class="cls-1" d="M282.66,157.52l-9.82,14.64-3.85-1.58-28.51,18.02-5.56-15.08s16.15-4.78,19.64-9.91c3.49-5.13,.36-6.77,.36-6.77l8.21-7.35,19.53,8.03Z"/><g><g><path class="cls-1" d="M276.12,124.43s-11.34-3.97-25.84-21.69c-14.5-17.72-19.7-39.58-21.72-39.72-2.02-.14-10.29-5.25-31.29,28.99-21,34.25-15.44,43.45-12.12,43.78,3.32,.33,26.59-3.25,40.46,.03,13.87,3.28,31.07,12.77,31.07,12.77l19.45-24.17Z"/><path class="cls-9" d="M298.45,148.53l-4.88,7.08-2.19,3.17c-3,4.35-8.87,5.59-13.38,2.83l-23.92-11.69,18.51-31.45,23.35,16.28c4.48,3.12,5.6,9.28,2.5,13.78Z"/><path class="cls-9" d="M198.54,92.84c-11.22,18.57-17,35.62-12.92,38.09,4.08,2.46,16.48-10.59,27.7-29.16,11.22-18.57,17-35.62,12.92-38.09-4.08-2.46-16.48,10.59-27.7,29.16Z"/></g><path class="cls-1" d="M293.08,149.21c-.13,.21-3.35-1.51-7.19-3.83-3.85-2.33-6.86-4.38-6.74-4.58,.12-.21,3.34,1.51,7.19,3.84,3.85,2.33,6.86,4.38,6.74,4.58Z"/><path class="cls-1" d="M295.73,144.71c-.13,.2-3.03-1.45-6.48-3.69-3.45-2.24-6.14-4.23-6-4.43,.13-.2,3.03,1.45,6.48,3.7,3.45,2.24,6.14,4.22,6,4.43Z"/><path class="cls-1" d="M289.86,153.87c-.05,.11-.83-.17-2.07-.72-.62-.27-1.35-.62-2.15-1.01-.8-.4-1.61-.94-2.49-1.48-3.5-2.16-6.12-4.18-6.01-4.37,.14-.22,3,1.48,6.46,3.62,.87,.53,1.67,1.09,2.43,1.52,.77,.42,1.46,.81,2.03,1.16,1.15,.68,1.84,1.16,1.79,1.27Z"/><path class="cls-6" d="M217.14,90.64s-9.37-7.49-16.55,5.52c-7.18,13.01,3.21,16.54,3.21,16.54,5.17-6.24,9.64-13.56,13.34-22.06Z"/><path class="cls-9" d="M229.85,75.63c.06,.02-.2,.93-.71,2.57-.52,1.63-1.26,4-2.27,6.91-.6,1.42-1.26,2.96-1.97,4.62-.36,.83-.73,1.69-1.11,2.57-.19,.44-.38,.89-.58,1.34-.21,.45-.46,.88-.69,1.33-.95,1.79-1.96,3.68-2.99,5.63-.26,.49-.52,.98-.79,1.48-.26,.5-.6,.96-.89,1.44-.62,.96-1.24,1.94-1.88,2.92-.63,.99-1.26,1.96-1.88,2.92-.32,.47-.6,.97-.94,1.41-.34,.45-.68,.89-1.02,1.33-1.34,1.75-2.64,3.45-3.88,5.06-.31,.4-.6,.81-.93,1.18-.33,.37-.66,.73-.98,1.09-.65,.71-1.28,1.41-1.88,2.08-1.22,1.33-2.35,2.58-3.39,3.71-2.22,2.11-4.06,3.77-5.33,4.92-1.28,1.14-2,1.76-2.04,1.71-.04-.04,.6-.74,1.81-1.96,1.24-1.24,2.99-2.98,5.14-5.12,1.01-1.15,2.11-2.41,3.28-3.76,.59-.67,1.2-1.37,1.83-2.09,.32-.36,.64-.72,.96-1.09,.32-.38,.6-.79,.91-1.19,1.22-1.61,2.49-3.3,3.81-5.06,.33-.44,.67-.88,1-1.32,.34-.44,.62-.94,.93-1.41,.61-.95,1.23-1.92,1.86-2.9,.63-.98,1.25-1.95,1.87-2.9,.3-.48,.63-.94,.89-1.43,.26-.49,.53-.98,.79-1.46,1.05-1.93,2.06-3.79,3.02-5.57,.24-.45,.49-.87,.7-1.32,.2-.45,.4-.89,.59-1.33,.39-.87,.77-1.72,1.14-2.54,.74-1.63,1.43-3.16,2.06-4.55,1.05-2.83,1.91-5.14,2.52-6.78,.61-1.6,.98-2.48,1.03-2.46Z"/></g></g><path class="cls-1" d="M175.66,102.58c0,.14-7.36-.1-16.41-.54-9.06-.44-16.39-.92-16.39-1.06s7.35,.1,16.41,.54c9.06,.44,16.39,.92,16.39,1.06Z"/><path class="cls-1" d="M182.81,81.15c-.06,.13-8.58-4.03-19.02-9.3-10.44-5.26-18.85-9.64-18.79-9.76,.06-.13,8.58,4.03,19.02,9.3,10.44,5.26,18.85,9.63,18.79,9.76Z"/><path class="cls-1" d="M195.65,67.34c-.14,.04-1.98-6.42-4.12-14.42-2.14-8.01-3.76-14.52-3.62-14.56,.14-.04,1.98,6.42,4.12,14.43,2.14,8,3.76,14.52,3.62,14.56Z"/></g><path class="cls-1" d="M482.86,85.5c-.7-2.38-2.27-4.45-4.21-5.99-1.9-1.51-4.23-2.56-6.66-2.66-2.58-.11-5.19,.89-7.04,2.69-1.1,1.07-1.92,2.42-2.39,3.88-.9-1.07-2.03-1.94-3.29-2.52-2.35-1.08-5.14-1.14-7.53-.17-2.25,.91-4.09,2.68-5.38,4.75-1.31,2.11-2.1,4.58-1.95,7.06,.18,3.1,1.34,6.33,3.37,8.68,2.15,2.48,5.23,4.26,8.28,5.44,5.14,2,11.88,4.45,11.88,4.45,0,0,4.51-4.77,8.68-8.39,2.48-2.15,4.79-4.85,5.97-7.91,1.12-2.9,1.14-6.33,.26-9.31Z"/><path class="cls-1" d="M438.01,59.03c.07-1.47-.42-2.93-1.21-4.17-.78-1.21-1.88-2.25-3.22-2.77-1.42-.56-3.08-.5-4.46,.15-.82,.39-1.54,.99-2.09,1.71-.3-.77-.76-1.48-1.36-2.05-1.11-1.05-2.66-1.63-4.19-1.54-1.44,.08-2.81,.72-3.92,1.62-1.14,.93-2.06,2.16-2.45,3.58-.5,1.77-.46,3.8,.22,5.51,.73,1.8,2.11,3.39,3.59,4.64,2.5,2.11,5.8,4.78,5.8,4.78,0,0,3.45-1.81,6.48-3.03,1.8-.73,3.61-1.8,4.87-3.28,1.19-1.41,1.85-3.33,1.94-5.17Z"/><path class="cls-1" d="M252.23,385.85c-.57-1.35-1.63-2.47-2.88-3.24-1.22-.76-2.66-1.22-4.1-1.12-1.53,.11-2.99,.87-3.96,2.06-.57,.71-.97,1.55-1.15,2.44-.6-.57-1.32-1.01-2.11-1.26-1.45-.48-3.1-.32-4.44,.41-1.26,.69-2.23,1.85-2.85,3.15-.63,1.33-.93,2.84-.68,4.29,.31,1.81,1.22,3.63,2.57,4.88,1.43,1.32,3.36,2.15,5.24,2.65,3.16,.83,7.29,1.82,7.29,1.82,0,0,2.33-3.11,4.55-5.52,1.32-1.43,2.49-3.18,2.98-5.06,.47-1.78,.24-3.8-.47-5.5Z"/><g><g><path class="cls-9" d="M645.68,193.73c-.11,0,.11-1.92-.6-5.26-.32-1.67-1.03-3.65-2.18-5.77-1.16-2.11-2.86-4.32-5.21-6.24-2.34-1.9-5.32-3.55-8.81-4.3-3.46-.73-7.39-.77-11.19,.51-1.91,.58-3.76,1.5-5.48,2.68-.89,.56-1.67,1.27-2.48,1.95-.74,.76-1.52,1.51-2.17,2.38-2.74,3.37-4.39,7.77-4.61,12.37-.14,4.6,1.16,9.12,3.63,12.69,.58,.92,1.3,1.72,1.98,2.54,.76,.74,1.49,1.51,2.33,2.14,1.62,1.31,3.4,2.37,5.25,3.1,3.69,1.57,7.61,1.84,11.12,1.38,3.53-.48,6.63-1.89,9.11-3.6,2.49-1.73,4.36-3.81,5.68-5.82,1.31-2.02,2.17-3.94,2.62-5.58,.96-3.27,.89-5.21,1-5.19,.01,0,.01,.12,0,.35-.02,.27-.03,.61-.06,1.03-.02,.45-.07,1.01-.2,1.66-.11,.65-.23,1.41-.5,2.23-.42,1.67-1.26,3.64-2.56,5.71-1.31,2.06-3.19,4.21-5.72,6-2.52,1.77-5.68,3.25-9.3,3.76-3.59,.49-7.63,.24-11.43-1.36-1.91-.74-3.75-1.83-5.42-3.17-.87-.64-1.61-1.43-2.4-2.2-.71-.84-1.45-1.67-2.05-2.61-2.56-3.68-3.9-8.34-3.76-13.08,.23-4.74,1.93-9.28,4.76-12.75,.67-.9,1.47-1.66,2.24-2.45,.84-.7,1.65-1.43,2.56-2.01,1.77-1.21,3.68-2.15,5.65-2.74,3.91-1.3,7.95-1.24,11.5-.47,3.57,.79,6.61,2.51,8.98,4.47,2.38,1.98,4.09,4.26,5.24,6.42,1.14,2.17,1.82,4.19,2.11,5.89,.2,.84,.26,1.6,.32,2.26,.09,.66,.09,1.22,.07,1.67,0,.42-.02,.76-.02,1.03,0,.23-.02,.35-.03,.35Z"/><path class="cls-9" d="M624.06,215.19c-2.47,0-5.38-.38-8.33-1.62-1.93-.75-3.8-1.84-5.54-3.25-.71-.53-1.36-1.17-1.99-1.79l-.44-.44-.39-.45c-.6-.7-1.22-1.43-1.74-2.25-2.62-3.76-3.98-8.51-3.83-13.37,.23-4.85,1.96-9.49,4.87-13.05,.57-.76,1.25-1.44,1.9-2.1l.37-.38,.51-.43c.68-.57,1.38-1.16,2.15-1.65,1.83-1.25,3.78-2.2,5.77-2.8,4.55-1.51,8.9-1.09,11.75-.48,3.28,.73,6.46,2.31,9.2,4.58,2.19,1.82,4.04,4.09,5.36,6.57,1.1,2.09,1.84,4.17,2.16,6.04,.18,.75,.25,1.46,.31,2.08l.02,.22c.07,.56,.1,1.12,.08,1.74l-.02,1.02c0,.16,0,.28-.03,.39,0,.11,0,.22,0,.32l-.06,1.03c-.02,.61-.09,1.17-.21,1.73l-.04,.21c-.1,.61-.22,1.31-.47,2.07-.45,1.8-1.36,3.83-2.61,5.82-1.51,2.38-3.54,4.5-5.85,6.14-2.91,2.04-6.2,3.38-9.52,3.85-.97,.13-2.11,.23-3.36,.23Zm.03-43.03c-1.92,0-4.05,.26-6.23,.99-1.85,.56-3.65,1.45-5.35,2.62-.7,.44-1.31,.96-1.96,1.51l-.84,.78c-.6,.61-1.22,1.24-1.74,1.93-2.7,3.31-4.29,7.6-4.51,12.1-.13,4.49,1.13,8.89,3.55,12.39,.47,.75,1.04,1.43,1.6,2.08l.36,.43,.41,.41c.61,.6,1.18,1.17,1.83,1.65,1.62,1.32,3.35,2.34,5.14,3.04,4.11,1.75,8.18,1.7,10.87,1.35,3.08-.42,6.16-1.64,8.9-3.52,2.18-1.51,4.09-3.47,5.54-5.68,1.21-1.86,2.09-3.74,2.56-5.44,.66-2.25,.82-3.85,.9-4.61,.02-.2,.04-.35,.06-.47-.01-.12-.02-.27-.02-.47-.02-.77-.06-2.37-.54-4.66-.34-1.74-1.08-3.69-2.13-5.63-1.27-2.31-3.03-4.42-5.08-6.09-2.58-2.09-5.55-3.54-8.6-4.2-1.28-.27-2.89-.5-4.69-.5Z"/></g><g><path class="cls-9" d="M638.29,209.15c.13-.12,4.65,4.54,10.09,10.42,5.44,5.88,9.74,10.74,9.6,10.87-.13,.12-4.65-4.54-10.09-10.42-5.44-5.88-9.74-10.74-9.6-10.86Z"/><path class="cls-9" d="M658.17,230.94h-.21c-.2-.01-.66-.03-10.43-10.59-9.77-10.55-9.75-11.02-9.74-11.22v-.21s.16-.15,.16-.15c.42-.4,.46-.42,3.75,2.98,1.91,1.97,4.41,4.62,7.04,7.47,2.63,2.85,5.08,5.54,6.9,7.6,3.14,3.55,3.1,3.58,2.68,3.97l-.15,.14Z"/></g></g><g><path class="cls-1" d="M150.08,165.86l-4.17,1.67-14.17-9.03-3.33-8.32s-6.6,2.18-1.48,12.77c5.12,10.59,3.19,8.14,3.19,8.14,0,0-13.66,5.53-14.32,7.18-.48,1.19,4.59,14.93,7.4,22.36,1.41,3.74,5.07,6.28,8.87,5.77,.54-.07,1.06-.2,1.55-.39,3.41-1.37,19.73-11.12,19.73-11.12l7.2-2.88-10.47-26.14Z"/><polygon class="cls-1" points="161.1 158.8 169.96 188.33 162.82 191.19 151.63 163.26 161.1 158.8"/></g><g><path class="cls-3" d="M573.79,381.82l-4.91,.81-13.18-13.17-1.62-9.8s-7.67,.78-4.66,13.47c3.01,12.69,1.5,9.58,1.5,9.58,0,0-16.11,2.72-17.22,4.34-.81,1.18,1.39,17.26,2.66,25.97,.64,4.39,3.99,8.01,8.22,8.37,.6,.05,1.2,.04,1.77-.05,4.02-.66,24.02-7.32,24.02-7.32l8.48-1.4-5.08-30.81Z"/><polygon class="cls-3" points="587.41 376.81 589.93 410.9 581.52 412.29 576.09 379.37 587.41 376.81"/></g><path class="cls-1" d="M312.69,413.58c4.71-.41,9.03-3.75,10.67-8.79,2.14-6.6-1.14-13.58-7.32-15.59-6.18-2.01-12.94,1.71-15.08,8.31-1.65,5.08-.06,10.37,3.57,13.46-18.1-2.92-23.32,16.09-23.32,16.09l40.76,13.25s7-18.67-9.29-26.73Z"/></g><g id="Character"><g><rect class="cls-8" x="114.58" y="233.63" width="526.26" height="128.48" rx="62.05" ry="62.05"/><g class="cls-15"><rect x="114.58" y="233.63" width="526.26" height="128.48" rx="62.05" ry="62.05"/></g><path class="cls-8" d="M178.82,223.11h397.79c35.45,0,64.24,28.78,64.24,64.24h0c0,35.45-28.78,64.24-64.24,64.24H178.82c-35.45,0-64.24-28.78-64.24-64.24h0c0-35.45,28.78-64.24,64.24-64.24Z"/><g class="cls-15"><path d="M497.61,223.11s-2.89,.07-4.36,.05c-5.02-.05-14.02-.05-14.02-.05l-6.44,11.94c1.49,3.14,3.43,6.66,6.84,7.35,1.69,.34,3.43-.1,5.07-.63,4.02-1.3,7.89-3.18,11.17-5.83,1.98-1.6,3.8-3.58,4.42-6.05,.62-2.46-.39-5.7-2.69-6.78Z"/></g><g class="cls-15"><path d="M268.81,235.94c-1.51-3.71-3.92-10.37-7.07-12.84,0,0-20.17,.35-20.27-.01l9.37,33.56c3.05,2.39,4.52,5.69,5.49,8.81,.97,3.12,1.77,6.47,4.03,8.82,2.27,2.35,6.65,3.03,8.6,.41,2.18-2.93-.2-7-.27-10.65-.07-3.65,2.24-6.87,3.18-10.4,1.57-5.89-.77-12.05-3.07-17.7Z"/></g></g><g><g><g><path class="cls-11" d="M420.54,119.41c1.39-3.55,2.81-7.21,2.83-11.04,.02-3.83-1.67-7.93-5.03-9.56-3.1-1.51-6.83-.64-10.11-1.7-4.04-1.3-6.69-5.25-8.59-9.16-1.9-3.9-3.45-8.15-6.54-11.13-4.1-3.96-10.69-4.76-15.65-2.11-3.7-2.46-8.48-3.69-12.11-3.69-5.39,0-11.51,.62-15.15,4.59-2.82,3.08-4.56,6.95-8.07,9.22-4.83,3.12-11.19,.79-16.93,1.18-1.17,.08-2.53,.42-2.98,1.5-.39,.94,.09,1.99,.55,2.89,1.58,3.04,3.15,6.09,4.73,9.13-2.38,1.19-5.31,1.21-7.7,.05,.44,6.04,3.09,11.9,7.33,16.23-1.04-.69-2.55,.1-3.03,1.26-.47,1.16-.2,2.48,.16,3.67,2.23,7.34,7.75,13.61,14.76,16.74,7,3.13,15.36,3.07,22.31-.16l31.75,1.41c.95,2.44,3.12,4.34,5.62,4.9,3.47-2.73,3.99-4.23,3.99-4.23,2.23,1.56,.49,.79,2.23,1.56,3.98,1.75,9.72-.65,10.47-5.05,.31-1.84,.77-3.61,1.96-4.89,1.22-1.31,2.99-1.86,4.55-2.7,2.45-1.33,4.46-3.52,5.62-6.12-2.56,.1-5.15-.93-6.98-2.79Z"/><path class="cls-7" d="M342.25,107.37c.12-15.9,12.42-29.04,28.28-30.2l1.58-.12c17.06-.25,26.81,14.09,26.59,31.16l2.53,78.57-38.95,2.78-1.47-25.53s-16.52-1.34-17.92-17.65c-.68-7.88-.75-24.22-.64-39Z"/><path class="cls-11" d="M350.43,119.72c.05,1.23,1.13,2.21,2.42,2.19,1.29-.03,2.3-1.04,2.25-2.28-.05-1.23-1.13-2.21-2.42-2.19-1.29,.02-2.3,1.05-2.25,2.28Z"/><path class="cls-11" d="M347.18,113.62c.31,.28,1.98-1.15,4.49-1.33,2.5-.21,4.44,.94,4.69,.62,.12-.15-.21-.67-1.06-1.2-.83-.52-2.22-.99-3.78-.87-1.56,.12-2.84,.79-3.55,1.44-.73,.65-.95,1.22-.8,1.34Z"/><path class="cls-11" d="M363.81,134.01c0-.14-1.58-.3-4.13-.44-.65-.02-1.26-.1-1.4-.53-.18-.45,.03-1.16,.29-1.93,.49-1.59,1-3.27,1.54-5.02,2.12-7.14,3.61-12.99,3.32-13.07-.29-.08-2.24,5.64-4.36,12.78-.51,1.76-.99,3.44-1.46,5.04-.19,.75-.55,1.6-.15,2.54,.21,.47,.7,.78,1.12,.86,.42,.1,.78,.08,1.1,.07,2.55-.05,4.13-.15,4.13-.3Z"/><path class="cls-11" d="M346.41,107.58c.58,.54,2.66-.19,5.2-.38,2.54-.26,4.73,.09,5.19-.54,.2-.3-.18-.85-1.15-1.33-.96-.48-2.54-.82-4.29-.67-1.75,.16-3.23,.77-4.08,1.41-.86,.64-1.12,1.25-.87,1.51Z"/><path class="cls-7" d="M397.11,120.48c.27-.14,10.98-4.14,11.44,7.05,.46,11.19-10.87,9.34-10.9,9.02-.03-.32-.54-16.07-.54-16.07Z"/><path class="cls-2" d="M399.9,132.24s.2,.13,.54,.27c.33,.13,.88,.21,1.46-.03,1.16-.48,2.08-2.4,2.05-4.42-.01-1.02-.27-1.98-.66-2.77-.38-.8-.93-1.35-1.53-1.44-.6-.11-1,.26-1.13,.58-.14,.32-.06,.54-.12,.56-.03,.03-.25-.18-.18-.64,.04-.22,.16-.49,.41-.72,.26-.23,.65-.36,1.07-.33,.87,.02,1.67,.79,2.11,1.65,.48,.87,.79,1.95,.8,3.09,.02,2.26-1.05,4.42-2.64,4.95-.78,.24-1.45,.03-1.79-.22-.36-.26-.43-.51-.39-.53Z"/><path class="cls-11" d="M400.89,94.92s-.87-4.2-4.35-9.03c-5.86-8.13-19.22-11.93-26.8-11.25-7.58,.67-15.46,6.3-22.53,9.12-4.63,1.85-8.14,6.1-6.38,9.39-2.76,1.05-5.61,1.76-8.58,1.88,0,0-.27,4.18,2.05,5.28l7.3,4.78c9.73,1.29,26.81-8.29,30.11-11.31,2.85-2.61,6.91-5.62,10.06-7.22-3.1,8.13,6.99,6.33,6.73,9.48-3.09,11.43,6.23,15.65,6.23,15.65l.23,9.98c-.21,2.56,.89,4.54,3.46,4.36,0,0,0,0,0,0,0,0,2.77-3.82,3.25-6.93,.92-6.02,.35-18.22-.78-24.2Z"/><path class="cls-2" d="M360.67,164.02s10.47-.14,20.94-7.83c0,0-4.17,12.12-20.57,11.84l-.36-4.01Z"/><path class="cls-11" d="M373.95,118.22c.05,1.23,1.13,2.21,2.42,2.19,1.29-.03,2.3-1.04,2.25-2.28-.05-1.23-1.13-2.21-2.42-2.19-1.29,.03-2.3,1.05-2.25,2.28Z"/><path class="cls-11" d="M371.26,112.36c.31,.32,2.28-.92,5.03-.82,2.74,.07,4.72,1.44,5.03,1.14,.15-.13-.15-.69-1.02-1.31-.85-.61-2.3-1.23-4.02-1.29-1.71-.05-3.17,.47-4.01,1.03-.86,.56-1.16,1.1-1.01,1.25Z"/><path class="cls-11" d="M371.01,104.49c.24,.69,2.76,.38,5.71,.76,2.96,.32,5.33,1.2,5.73,.59,.18-.29-.23-.94-1.19-1.61-.95-.67-2.47-1.31-4.24-1.52-1.77-.21-3.4,.06-4.47,.49-1.09,.43-1.64,.96-1.53,1.29Z"/></g><path class="cls-10" d="M418.81,129.08s-.25,0-.67-.17c-.42-.18-1.02-.55-1.56-1.25-.53-.69-1.01-1.7-1.15-2.94-.16-1.24,0-2.65,.17-4.17,.17-1.51,.34-3.21-.22-4.88-.28-.82-.78-1.59-1.5-2.17-.71-.6-1.59-1.03-2.5-1.46-.91-.43-1.89-.85-2.78-1.5-.91-.62-1.65-1.56-2.08-2.61-.91-2.12-.82-4.51-1.32-6.73-.26-1.12-.65-2.2-1.32-3.06-.66-.88-1.62-1.41-2.67-1.63-1.04-.24-2.14-.28-3.21-.49-1.06-.2-2.14-.68-2.84-1.51-.69-.83-1.04-1.83-1.27-2.77-.24-.95-.37-1.87-.57-2.74-.19-.87-.47-1.67-.84-2.41-.4-.72-.83-1.38-1.34-1.94-2.03-2.27-4.52-3.11-6.17-3.37-1.69-.22-2.64,0-2.64-.06,0,0,.93-.31,2.67-.14,1.69,.2,4.27,1,6.41,3.32,.54,.57,1,1.25,1.42,2,.39,.76,.7,1.61,.9,2.5,.21,.89,.36,1.81,.59,2.73,.23,.91,.57,1.84,1.19,2.57,.63,.73,1.55,1.15,2.57,1.34,1.02,.2,2.11,.23,3.22,.48,1.11,.22,2.24,.84,2.96,1.81,.74,.95,1.15,2.1,1.42,3.26,.51,2.33,.43,4.66,1.29,6.65,.41,.99,1.06,1.82,1.9,2.41,.83,.61,1.78,1.03,2.69,1.47,.92,.44,1.83,.9,2.59,1.54,.78,.63,1.33,1.49,1.62,2.38,.57,1.8,.36,3.55,.17,5.07-.21,1.52-.37,2.89-.25,4.09,.11,1.19,.54,2.17,1.03,2.85,1.02,1.39,2.12,1.48,2.07,1.54Z"/><path class="cls-10" d="M328.82,89.28s.18,.1,.5,.32c.37,.25,.83,.57,1.4,.96,1.23,.81,3.04,1.97,5.51,2.85,2.44,.87,5.69,1.33,8.95,.18,1.61-.57,3.15-1.6,4.28-3.07,1.16-1.46,1.99-3.25,2.93-5.04,.93-1.8,2.08-3.5,3.56-4.76,1.46-1.28,3.14-2.16,4.8-2.77,3.36-1.2,6.66-1.14,9.26-.68,2.63,.46,4.65,1.26,6,1.86,.68,.31,1.19,.57,1.53,.75,.34,.19,.52,.3,.51,.31,0,.02-.2-.06-.55-.22-.36-.16-.88-.39-1.56-.66-1.37-.54-3.38-1.28-5.98-1.68-2.57-.4-5.79-.42-9.04,.77-1.61,.6-3.23,1.47-4.63,2.7-1.42,1.22-2.51,2.84-3.44,4.62-.94,1.77-1.78,3.59-2.99,5.11-1.19,1.54-2.84,2.63-4.52,3.21-3.41,1.18-6.77,.65-9.24-.28-2.51-.94-4.3-2.17-5.5-3.03-.6-.44-1.05-.8-1.35-1.05-.3-.25-.45-.39-.44-.41Z"/><path class="cls-10" d="M324.6,104.13c.06-.07,.83,.6,2.22,1.46,1.38,.86,3.43,1.83,5.85,2.38,2.42,.54,4.69,.55,6.31,.37,1.62-.17,2.6-.45,2.63-.36,.01,.03-.23,.13-.67,.28-.44,.15-1.09,.31-1.91,.45-1.64,.28-3.98,.33-6.47-.23-2.49-.57-4.58-1.63-5.94-2.58-.68-.47-1.21-.9-1.54-1.23-.34-.32-.51-.51-.48-.54Z"/><path class="cls-10" d="M334,113.48c.06-.14,1.77,.55,3.98,.92,2.21,.38,4.05,.28,4.06,.44,.02,.13-1.85,.47-4.14,.08-2.29-.38-3.96-1.32-3.89-1.43Z"/></g><g><path class="cls-10" d="M361.35,173.55l-32.11,8.84-34.63,25.03,9.24,15.8,163.31,.28s-5.95-21.83-7.91-28.53c-2.95-10.11-6.95-12.97-10.61-16.66-1.11-1.12-4.29-3.09-5.83-3.43-6.45-1.41-36.35-8.12-42.17-7.96,0,0-6.71,13.87-20.77,13.73s-18.53-7.11-18.53-7.11Z"/><path class="cls-11" d="M427.54,199.18c.1,.03,.4-1.32,1.35-3.29,.93-1.98,2.62-4.52,4.95-6.92,2.33-2.4,4.75-4.27,6.49-5.63,1.75-1.35,2.82-2.2,2.77-2.27-.05-.06-1.21,.66-3.02,1.93-1.8,1.28-4.29,3.11-6.66,5.55-2.38,2.44-4.06,5.09-4.91,7.16-.43,1.03-.7,1.9-.83,2.51-.14,.61-.17,.95-.14,.96Z"/><path class="cls-11" d="M330.01,216.52c.08,0,.13-1.3,.11-3.4-.02-2.1-.13-4.99-.38-8.18-.24-3.19-.57-6.07-.87-8.15-.29-2.08-.54-3.35-.62-3.34-.08,.01,.02,1.3,.21,3.39,.19,2.27,.43,5.06,.69,8.14,.21,3.09,.4,5.88,.55,8.15,.13,2.09,.22,3.38,.31,3.38Z"/><g class="cls-15"><path d="M320.38,220.68c2.64-.78,5.33-1.78,7.29-3.72,1.96-1.94,3.01-5.04,1.84-7.54,3.74,8.3,12.77,13.91,21.87,13.6l-38.74,.48c2.37-1.41,5.1-2.05,7.75-2.83Z"/></g></g><g><path class="cls-7" d="M503.08,223.42s-3.93-5.34-5.86-6.35c-1.93-1.01-4.6-.98-5.77,.07l-1.17,1.05s-6.09-2.74-9.03-.63c0,0-5.8-2.74-8.57,.4,0,0-4.47-2.9-6.36-.37s-1.69,6.82-.78,9.03c.91,2.21,2.63,9.73,3.96,9.86,0,0,3.56,.38,4.04-1.55,.48-1.93,.68-2.85,.68-2.85,0,0,1.36,6.82,3,7.15,1.64,.34,4.77,.16,4.88-2.83,0,0,1.52,2.26,3.01,1.6,1.49-.66,3.32-1.75,3.16-3.6-.16-1.85-.19-3.7-.19-3.7,0,0,.81,2.69,2.16,2.11,1.35-.59,2.7-.46,3.45-2.75,.76-2.29,2.63-6.64,2.63-6.64h6.75Z"/><path class="cls-2" d="M488.19,230.55c.08-.04-.27-.74-.58-1.93-.32-1.18-.54-2.89-.2-4.72,.34-1.83,1.16-3.35,1.88-4.34,.72-1,1.3-1.52,1.23-1.59-.04-.05-.73,.36-1.56,1.33-.83,.96-1.77,2.54-2.13,4.49-.36,1.95-.06,3.76,.38,4.95,.43,1.21,.92,1.84,.98,1.8Z"/><path class="cls-2" d="M480.88,217.6c-.07-.02-.44,.99-.78,2.68-.34,1.69-.58,4.1-.41,6.74,.18,2.64,.74,4.99,1.31,6.62,.56,1.64,1.07,2.58,1.13,2.55,.19-.06-1.53-4.01-1.85-9.22-.38-5.2,.79-9.35,.6-9.38Z"/><path class="cls-2" d="M472.55,218.05c-.15-.02-.55,3.23-.09,7.21,.45,3.99,1.58,7.05,1.72,7,.17-.05-.69-3.15-1.13-7.07-.46-3.92-.32-7.13-.5-7.14Z"/></g><path class="cls-7" d="M448.56,219.58c.25-.63,.88-1.05,1.53-1.24,1.53-.44,3.2,.16,4.42,1.18,1.22,1.02,2.4,2.62,3.23,3.98l-8.64-.06c.08-1.32-1.03-2.63-.55-3.87Z"/><g><path class="cls-7" d="M229.6,225.75c.54-5.36,3.52-10.16,8.09-13h0c3.63-2.14,8.03-2.58,12.01-1.19l16.67,5.81c.9,.96,28.41-9.64,28.41-9.64l9.24,15.78-52.58-.07c3.79,4.47,9.18,9.41,9.18,9.41l3.57,11.86-.36,10.73c-1.89,.87-4.71-2.44-4.71-2.44l-1.65,3.03,.55,2.92s4.86,11.8,4.69,14.42c-.07,1.05-.74,1.42-1.53,1.49-1.41,.12-2.73-.71-3.38-1.96l-6.91-13.43s-5.35-1.31-7.22-3.07c-1.96-1.85-4.74-5.18-4.74-5.18l-3.39-.48c-.31,.08-.73-.02-1.17-.23-1.83-.86-3.06-2.62-3.44-4.6l-1.72-9.05c-.38-1.99-.05-6.75,.39-11.09Z"/><path class="cls-2" d="M245.26,249.12c-.14,.04,.58,2.65,2.17,5.55,1.59,2.91,3.4,4.92,3.51,4.83,.13-.1-1.46-2.23-3.02-5.09-1.57-2.85-2.51-5.34-2.66-5.29Z"/><path class="cls-2" d="M237.24,248.14c-.17,.07,.45,1.46,1.53,2.92,1.06,1.47,2.07,2.55,2.18,2.46,.13-.1-.68-1.33-1.73-2.78-1.07-1.45-1.87-2.64-1.98-2.59Z"/><path class="cls-2" d="M259.11,261.62c.08-.03-.34-1.26-.94-3.28-.61-2.01-1.4-4.81-2.17-7.92-.39-1.56-.74-3.04-1.04-4.4-.31-1.35-.47-2.57-.36-3.59,.21-2.08,1.36-2.98,1.27-3.02-.02-.02-.32,.14-.7,.61-.38,.47-.8,1.28-.96,2.35-.17,1.08-.04,2.38,.25,3.75,.28,1.37,.61,2.87,1,4.43,.78,3.12,1.63,5.92,2.34,7.91,.7,1.99,1.25,3.18,1.32,3.16Z"/><path class="cls-2" d="M255.5,241.68c-.07,.06,.5,.7,1.16,1.89,.66,1.18,1.36,2.96,1.49,5.01,.06,1.01,0,2.07,.25,2.99,.21,.95,.76,1.68,1.26,2.17,1.03,.98,1.84,1.32,1.87,1.28,.06-.08-.68-.55-1.58-1.55-.44-.5-.89-1.17-1.05-2.02-.21-.86-.13-1.83-.19-2.92-.14-2.17-.94-4.02-1.71-5.18-.77-1.18-1.46-1.73-1.5-1.69Z"/><path class="cls-2" d="M251.58,223.57c.1-.13-1.85-1.75-3.82-4.16-1.99-2.38-3.23-4.63-3.41-4.49-.04-.02,.19,.61,.69,1.51,.5,.91,1.28,2.11,2.29,3.33,2.01,2.46,4.17,3.93,4.25,3.8Z"/></g><g class="cls-15"><polygon points="424.55 223.42 425.21 208.36 414.63 223.41 424.55 223.42"/></g><path class="cls-11" d="M424.55,223.42c-.14,0-.04-4,.23-8.92,.27-4.92,.61-8.9,.75-8.89,.14,0,.04,4-.23,8.92-.27,4.92-.61,8.9-.75,8.89Z"/><path class="cls-4" d="M421.32,170.81s.19,.31,.27,.97c.08,.66-.04,1.7-.73,2.79-.66,1.08-1.91,2.2-3.66,2.69-1.74,.54-3.82,.54-6.05,.51-1.12,0-2.28,0-3.48,.18-1.19,.17-2.41,.52-3.47,1.24-1.07,.71-1.91,1.77-2.49,3.02-.59,1.24-.96,2.63-1.28,4.07-.33,1.44-.62,2.94-1.08,4.44-.47,1.49-1.16,3-2.22,4.26-2.07,2.55-5.29,4.34-8.79,4.57-3.51,.21-6.91-1.15-9.34-3.34-1.24-1.08-2.18-2.44-2.95-3.79-.78-1.32-1.61-2.61-2.87-3.29-1.23-.71-2.69-.83-4.06-.71-1.38,.11-2.7,.43-3.99,.68-1.29,.26-2.56,.51-3.81,.52-1.25,.06-2.44-.21-3.52-.56-2.17-.73-3.84-2.03-5.04-3.36-1.21-1.34-1.94-2.74-2.36-3.93-.24-.59-.32-1.15-.44-1.62-.05-.48-.13-.89-.14-1.22,0-.31,0-.55,0-.75,0-.17,.01-.26,.02-.26,.11-.02-.15,1.44,.74,3.78,.44,1.16,1.18,2.51,2.38,3.8,1.19,1.28,2.84,2.53,4.94,3.21,1.05,.32,2.19,.57,3.39,.51,1.2-.02,2.44-.27,3.73-.54,1.29-.27,2.62-.59,4.04-.72,1.4-.14,2.97-.03,4.33,.75,1.39,.75,2.28,2.14,3.06,3.45,.77,1.34,1.66,2.62,2.86,3.66,2.35,2.1,5.62,3.41,8.97,3.2,3.34-.22,6.44-1.93,8.43-4.37,2.07-2.45,2.56-5.62,3.22-8.49,.33-1.45,.71-2.87,1.33-4.16,.61-1.3,1.52-2.44,2.66-3.18,1.14-.75,2.43-1.11,3.65-1.28,1.23-.17,2.42-.17,3.54-.15,2.23,.06,4.27,.08,5.96-.42,1.71-.45,2.91-1.5,3.58-2.52,.69-1.03,.84-2.03,.8-2.67-.05-.65-.2-.97-.16-.98Z"/><path class="cls-4" d="M372.69,222.34s-.09-.23-.21-.69c-.14-.5-.32-1.16-.54-1.98-.52-1.68-1.19-4.23-2.96-6.85-.43-.66-.98-1.27-1.59-1.87-.63-.57-1.35-1.1-2.17-1.51-1.64-.83-3.64-1.13-5.71-1-2.08,.12-4.23,.61-6.46,1.13-2.23,.53-4.61,.99-7.09,.92-2.45-.06-4.97-.79-6.67-2.49-1.73-1.68-2.41-4-2.63-6.1-.23-2.13-.02-4.16,.14-6.02,.16-1.86,.27-3.6,.13-5.17-.24-3.16-1.76-5.45-3.11-6.54-1.39-1.1-2.46-1.15-2.43-1.23,0,0,.06,0,.18,.02,.12,.03,.3,.04,.53,.11,.46,.12,1.12,.4,1.84,.94,1.43,1.07,3.06,3.41,3.36,6.66,.18,1.61,.08,3.37-.06,5.24-.14,1.87-.33,3.86-.09,5.93,.23,2.04,.9,4.24,2.51,5.79,1.59,1.58,3.95,2.27,6.33,2.33,2.4,.07,4.73-.37,6.95-.89,2.23-.51,4.42-1,6.55-1.11,2.13-.12,4.22,.21,5.93,1.1,.85,.44,1.6,1,2.25,1.6,.62,.63,1.19,1.27,1.62,1.96,1.78,2.72,2.39,5.3,2.85,7.01,.22,.87,.36,1.55,.45,2.01,.09,.46,.13,.71,.11,.71Z"/><path class="cls-4" d="M425.78,209.57c-.05,.1-1.55-.98-4.37-1.67-1.4-.34-3.12-.53-5.02-.37-1.89,.17-3.94,.72-5.85,1.79-1.92,1.06-3.49,2.49-4.67,3.98-1.16,1.5-1.96,3.05-2.39,4.41-.43,1.37-.42,2.56-.22,3.33,.19,.78,.49,1.14,.44,1.17-.01,.01-.09-.07-.22-.25-.12-.18-.29-.46-.41-.86-.27-.79-.34-2.05,.06-3.49,.41-1.43,1.18-3.04,2.36-4.6,1.19-1.55,2.81-3.04,4.79-4.14,1.98-1.11,4.11-1.67,6.06-1.82,1.96-.14,3.73,.1,5.15,.49,1.43,.39,2.51,.9,3.22,1.31,.36,.2,.62,.38,.8,.5,.18,.12,.26,.2,.25,.21Z"/><path class="cls-4" d="M436.56,182.59c-.05,.03-.36-.41-.61-1.24-.25-.82-.39-2.04-.14-3.34,.25-1.3,.84-2.38,1.38-3.04,.54-.67,.99-.96,1.03-.92,.13,.1-1.44,1.58-1.9,4.06-.51,2.47,.39,4.43,.24,4.48Z"/><path class="cls-4" d="M461.04,202.41s-.02,.15-.1,.44c-.07,.29-.23,.69-.46,1.2-.47,1.02-1.36,2.42-2.87,3.76-1.51,1.31-3.69,2.56-6.36,2.91-2.7,.4-5.59-.46-8.49-1.18-1.46-.35-2.91-.64-4.31-.65-1.4-.02-2.75,.2-3.97,.61-2.45,.83-4.37,2.27-5.69,3.71-1.32,1.45-2.07,2.88-2.48,3.9-.42,1.02-.54,1.63-.6,1.61-.02,0,0-.16,.06-.44,.06-.29,.14-.72,.34-1.24,.36-1.05,1.07-2.55,2.4-4.07,1.32-1.51,3.28-3.03,5.81-3.92,1.26-.44,2.67-.69,4.13-.67,1.46,0,2.94,.3,4.42,.66,2.93,.73,5.74,1.58,8.31,1.21,2.56-.31,4.69-1.48,6.19-2.71,1.5-1.27,2.41-2.6,2.93-3.57,.52-.97,.69-1.57,.75-1.55Z"/><path class="cls-4" d="M327.3,220.68s-.12,.04-.35,.06c-.23,.03-.57,.04-1.01,.01-.87-.05-2.16-.25-3.6-.93-1.42-.68-3.02-1.82-4.2-3.57-.6-.87-1.07-1.89-1.37-3-.29-1.11-.44-2.27-.59-3.45-.27-2.34-.65-4.62-1.97-6.14-1.3-1.53-3.13-2.14-4.61-2.42-1.51-.29-2.77-.32-3.64-.37-.87-.03-1.35-.05-1.35-.09,0-.03,.48-.08,1.35-.12,.87-.02,2.14-.04,3.7,.21,1.53,.25,3.48,.84,4.91,2.48,.71,.8,1.19,1.85,1.51,2.94,.32,1.1,.46,2.27,.61,3.45,.15,1.18,.29,2.32,.57,3.38,.28,1.06,.72,2.02,1.28,2.86,1.11,1.69,2.62,2.81,3.97,3.51,2.78,1.38,4.82,1.06,4.79,1.19Z"/></g><text class="cls-5" transform="translate(186.2 309.39)"><tspan x="0" y="0">Regis</tspan><tspan class="cls-16" x="154.49" y="0">t</tspan><tspan class="cls-14" x="177.66" y="0">er </tspan><tspan class="cls-13" x="248.7" y="0">N</tspan><tspan class="cls-12" x="292.67" y="0">o</tspan><tspan class="cls-14" x="329.02" y="0">w</tspan></text><path d="M360.56,143.54c4.64-2.95,9.57-5.29,14.8-7-4.63,2.95-9.58,5.29-14.8,7h0Z"/></g><g id="Cursor"><g><g><path class="cls-1" d="M368.75,390.78c2.46,4.47,2.91,8.95,2.91,8.95h5.37s22.53-.4,22.53-.4l-.16,.4s3.67-17.28,4.34-22.42c.55-4.24,3.17-14.38-.02-18.86-1.15-1.61-3.27-2.31-5.16-1.72-1.08,.34-2.18,1.12-2.58,2.83,0,0-.27-6-4.57-6.09-4.3-.09-4.45,3.27-4.45,3.27,0,0-1.18-6.84-5.97-6.78,0,0-2.95,.13-3.96,3.33v-12.94c0-2.64-2.02-4.94-4.66-5.04-2.73-.1-4.99,2.07-5.02,4.77l-.39,30.12-7.32-9.38c-1.91-2.43-6.47-1.22-7.05,.87,0,0-1.32,2.75,1.4,6.8,2.04,3.03,14.75,22.29,14.75,22.29Z"/><path class="cls-11" d="M368.75,390.78s-.13-.16-.35-.48c-.23-.34-.56-.82-.99-1.44-.87-1.29-2.13-3.17-3.75-5.59-1.63-2.44-3.62-5.42-5.93-8.88-1.16-1.73-2.39-3.59-3.7-5.56-.66-.99-1.3-2.07-1.63-3.31-.35-1.22-.46-2.59,.03-3.91v.03c.24-.8,.9-1.38,1.61-1.75,.72-.37,1.53-.57,2.35-.6,.82-.03,1.69,.13,2.44,.57,.19,.1,.35,.25,.53,.38,.15,.15,.31,.32,.45,.48,.26,.33,.52,.66,.78,.99,2.08,2.66,4.26,5.45,6.54,8.35l-.39,.13c.1-8.41,.21-17.61,.32-27.41,0-.61,.01-1.23,.02-1.84,.01-.6-.02-1.25,.13-1.9,.28-1.28,1.08-2.44,2.2-3.16,1.11-.73,2.52-1,3.84-.71,1.32,.28,2.49,1.15,3.21,2.3,.36,.57,.61,1.22,.73,1.89,.13,.68,.08,1.35,.09,2,0,1.31,0,2.62,0,3.94,0,2.64,0,5.31,0,7.99l-.51-.08c.35-1.1,1.09-2.24,2.22-2.87,.45-.27,.95-.45,1.46-.57,.24-.06,.54-.1,.8-.06,.26,.03,.53,.01,.78,.09,1.03,.2,1.96,.79,2.65,1.53,1.39,1.52,2.1,3.43,2.52,5.36l-.51,.03c.12-1.35,1-2.56,2.22-3.07,.59-.28,1.24-.38,1.86-.43,.32,0,.63-.04,.95,.02l.48,.05,.46,.14c1.27,.38,2.15,1.47,2.67,2.57,.52,1.13,.8,2.32,.89,3.53l-.5-.05c.26-1.27,1.19-2.45,2.42-2.89,1.21-.48,2.58-.43,3.74,.08,.58,.26,1.12,.62,1.56,1.07,.45,.45,.74,1.01,1.04,1.55,.52,1.12,.75,2.31,.91,3.49,.43,4.75-.58,9.25-1.28,13.53-.6,4.32-1.46,8.43-2.23,12.34-.81,3.9-1.58,7.62-2.31,11.11l-.37-.11c.06-.14,.11-.27,.16-.4l.18,.26c-9.06,.13-16.63,.24-22.53,.33l.12-.13h0v.13h-.13c-2.1,0-3.82-.02-5.37-.02h-.09s-.01-.09-.01-.09c-.39-3.01-1.2-5.27-1.8-6.74-.3-.74-.56-1.29-.75-1.66-.18-.37-.26-.56-.26-.56,0,0,.46,.71,1.11,2.18,.63,1.47,1.48,3.71,1.9,6.76l-.1-.09c1.55,0,3.27-.01,5.37-.02l-.13,.13h0v-.13h.12c5.9-.12,13.47-.28,22.53-.46h.29s-.11,.26-.11,.26c-.05,.13-.1,.26-.16,.4l-.37-.11c.71-3.5,1.47-7.21,2.27-11.12,.76-3.92,1.6-8.01,2.19-12.33,.69-4.29,1.68-8.78,1.25-13.4-.15-1.14-.38-2.29-.87-3.33-.29-.49-.54-1.02-.95-1.41-.39-.41-.88-.73-1.4-.96-1.05-.46-2.28-.49-3.36-.07-1.09,.4-1.87,1.38-2.12,2.54l-.36,1.73-.14-1.78c-.09-1.13-.35-2.3-.84-3.34-.49-1.02-1.27-1.98-2.37-2.3-1.06-.32-2.34-.25-3.39,.2-1.06,.44-1.81,1.5-1.91,2.62l-.16,1.69-.35-1.66c-.39-1.82-1.1-3.7-2.39-5.09-1.26-1.39-3.41-1.98-5.05-.9-1.01,.56-1.66,1.57-1.98,2.57l-.51,1.58v-1.66c0-2.69,0-5.35,0-7.99,0-1.32,0-2.63,0-3.94,0-.66,.04-1.3-.08-1.9-.11-.61-.34-1.19-.66-1.71-.65-1.04-1.7-1.82-2.88-2.07-1.18-.26-2.45-.02-3.45,.63-1,.65-1.73,1.7-1.98,2.85-.13,.57-.1,1.17-.12,1.8,0,.62-.02,1.23-.02,1.84-.14,9.8-.26,19.01-.38,27.41v.63s-.39-.49-.39-.49c-2.26-2.91-4.44-5.71-6.51-8.37-.54-.66-.96-1.39-1.64-1.76-.67-.4-1.46-.55-2.23-.52-.77,.02-1.53,.21-2.19,.55-.66,.34-1.23,.86-1.44,1.51h0s-.01,.03-.01,.03c-.44,1.15-.36,2.5-.03,3.66,.31,1.19,.92,2.24,1.57,3.22,1.3,1.98,2.53,3.84,3.67,5.58,2.28,3.48,4.25,6.48,5.86,8.93,1.59,2.44,2.82,4.34,3.67,5.64,.41,.64,.72,1.12,.94,1.47,.21,.33,.31,.51,.31,.51Z"/></g><g><rect class="cls-1" x="367.76" y="399.39" width="35.97" height="8.04" rx="3.88" ry="3.88"/><path class="cls-11" d="M399.86,407.43s.29-.02,.81-.14c.51-.13,1.28-.43,1.96-1.18,.33-.37,.63-.86,.81-1.43,.17-.57,.2-1.26,.11-1.96-.18-1.38-1.39-2.88-3.17-3.1-7.4,0-17.53,.02-28.73,.03-1.32,0-2.57,.76-3.18,1.89-.3,.57-.46,1.19-.44,1.83-.02,.65,.11,1.26,.4,1.82,.56,1.11,1.69,1.86,2.88,1.97,1.23,.04,2.51,.02,3.71,.03,4.86,.02,9.23,.04,12.93,.06,3.64,.03,6.61,.06,8.72,.08,.99,.02,1.78,.04,2.37,.05,.54,.02,.83,.03,.83,.05s-.28,.04-.83,.05c-.59,.01-1.38,.03-2.37,.05-2.11,.02-5.07,.05-8.72,.08-3.7,.02-8.07,.03-12.93,.06-1.23,0-2.44,.03-3.76-.01-1.35-.12-2.66-.96-3.29-2.23-.32-.62-.48-1.36-.46-2.05-.02-.71,.16-1.44,.5-2.08,.69-1.29,2.13-2.17,3.64-2.16,11.24,.02,21.37-.02,28.78,.12,1.96,.27,3.24,1.93,3.4,3.42,.09,.75,.04,1.45-.16,2.08-.21,.61-.54,1.12-.9,1.5-.74,.77-1.56,1.04-2.09,1.14-.54,.09-.83,.04-.83,.04Z"/></g><path class="cls-11" d="M376.79,364.34c-.14,0-.26-2.61-.26-5.83s.12-5.83,.26-5.83,.26,2.61,.26,5.83-.12,5.83-.26,5.83Z"/><path class="cls-11" d="M386.82,363.55c-.14,0-.26-1.55-.26-3.47s.12-3.47,.26-3.47,.26,1.55,.26,3.47-.12,3.47-.26,3.47Z"/><path class="cls-11" d="M395.98,366.47c-.14,0-.26-1.55-.26-3.47s.12-3.47,.26-3.47,.26,1.55,.26,3.47-.12,3.47-.26,3.47Z"/></g></g></svg>